<?xml version="1.0" encoding="UTF-8"?>
<svg id="svg12148886531" xmlns="http://www.w3.org/2000/svg" version="1.1" viewBox="0 0 2500 2500">
  <!-- Generator: Adobe Illustrator 29.6.1, SVG Export Plug-In . SVG Version: 2.1.1 Build 9)  -->
  <defs>
    <style>
      .st0 {
        fill: #ff3464;
      }

      .st1 {
        fill: #222634;
      }
    </style>
  </defs>
  <path class="st0" d="M1676.64,983.6h-59.21c-4.74,0-9.29,1.89-12.64,5.24-3.35,3.34-5.24,7.88-5.24,12.62v197.44c-12.62-21.13-30.29-38.81-51.43-51.45-22.34-13.55-48.02-20.53-74.15-20.16-30.46-.43-60.32,8.39-85.64,25.3-25.39,17.1-45.72,40.68-58.89,68.29-3.04,6.22-5.74,12.61-8.09,19.11-8.92,24.76-13.36,50.92-13.12,77.25-.18,25.45,4.26,50.72,13.12,74.59,8.21,22.38,20.69,42.97,36.72,60.62,7.36,8.09,15.48,15.45,24.27,21.95,9.9,7.34,20.55,13.6,31.77,18.69,22.11,10.01,46.12,15.08,70.38,14.88,25.62.03,50.85-6.23,73.47-18.23,15.9-8.26,30.03-19.54,41.61-33.2,5.3-6.21,10.04-12.88,14.17-19.91l1.45,23.34c.6,6.57,2.6,12.94,5.85,18.69,3.27,5.74,7.71,10.72,13.05,14.63,12.03,9.51,26.9,14.73,42.25,14.8,6.19-.09,12.38-.77,18.45-2,6.66-1.24,13.89-2.98,21.94-5.1v-77.39c-3.21-.1-6.36-.84-9.27-2.17-2.93-1.35-5.54-3.25-7.71-5.61-3.12-4.73-4.79-10.27-4.8-15.93v-398.43c-.03-4.74-1.93-9.27-5.3-12.62-3.37-3.35-7.91-5.23-12.67-5.24h-.31ZM1272.02,983.6h-47.37c-12.61,0-24.68,5-33.58,13.9-8.9,8.89-13.92,20.96-13.92,33.54s5.01,24.65,13.92,33.54c8.9,8.9,20.97,13.9,33.58,13.9h47.49l-.11-94.89ZM0,1446.23c21.17,20.55,46.55,36.25,74.39,46.05,29.11,10.44,59.83,15.71,90.75,15.59,38.57,2,76.71-8.79,108.49-30.7,13.21-9.8,23.83-22.66,30.93-37.49,7.1-14.82,10.47-31.16,9.8-47.57,1.05-18.84-4.47-37.46-15.62-52.7-12.67-14.34-28.61-25.42-46.48-32.29-19.99-8.46-40.48-15.76-61.33-21.84-4.57-1.36-9.23-2.68-14.03-4.03-14.67-4.69-27.04-8.85-37.2-12.58-8.39-2.66-16.12-7.04-22.69-12.88-4.13-4.26-6.66-9.81-7.16-15.72-.18-1.6-.28-3.21-.3-4.83-.26-4.13.33-8.26,1.72-12.17,1.39-3.89,3.56-7.47,6.38-10.49,5.98-5.65,13.33-9.64,21.33-11.56,9.14-2.37,18.57-3.54,28.02-3.48,17.75.07,35.32,3.56,51.73,10.28,13.72,5.61,26.84,12.57,39.18,20.77l56.35-47.64c-19.62-18.22-42.8-32.23-68.06-41.12-24.3-8.39-49.83-12.6-75.52-12.43h-4.39c-25.59.03-50.92,5.07-74.58,14.84-20.89,8.59-39.01,22.75-52.37,40.94-11.84,16.7-18.42,36.55-18.91,57v5.55c-.67,17.49,4.27,34.73,14.11,49.22,10.83,14.07,25.18,25.05,41.59,31.85,12.75,5.77,27.65,11.66,44.66,17.71,7.57,2.64,15.69,5.37,24.13,8.08,16.56,4.69,30.64,8.88,42.25,12.58,9.51,2.74,18.47,7.13,26.47,12.95,3.05,2.47,5.48,5.64,7.09,9.22,1.6,3.58,2.33,7.5,2.13,11.42.24,5.86-1.21,11.69-4.16,16.77-2.95,5.08-7.28,9.22-12.51,11.93-13.75,6.96-29.08,10.21-44.47,9.41-21.3-.27-42.36-4.59-62.05-12.74-15.83-6.4-30.91-14.56-44.96-24.28L0,1446.23ZM1468.77,1418.78c-12.41-5.41-23.63-13.21-33.02-22.93-9.53-9.83-16.88-21.56-21.58-34.41-3.92-10.2-6.35-20.89-7.19-31.77v-2.2c-.07-.89-.07-1.8,0-2.71v-13.15c.61-11.74,2.81-23.36,6.55-34.52,4.27-12.98,11.01-25.01,19.84-35.43l1.29-1.48c8.39-9.36,18.47-17.05,29.72-22.66,12.31-6.16,25.9-9.29,39.68-9.1h1.21c12.91.34,25.57,3.56,37.09,9.41,11.73,5.77,22.48,13.36,31.85,22.46l2.91,2.91c4.67,4.77,8.88,9.98,12.55,15.56v.18c4.12,6.38,7.48,13.21,10.03,20.36v2.5c3.76,12.23,5.67,24.96,5.62,37.77.1,12.67-1.8,25.28-5.62,37.35-1.89,5.82-4.27,11.46-7.16,16.86-8.11,15.82-20.24,29.25-35.16,38.94-14.9,9.39-32.12,14.44-49.73,14.58-13.29-.18-26.41-3.04-38.58-8.39l-.3-.14ZM523.86,1127.52c-23.4-.24-46.58,4.52-67.99,13.93-21.41,9.41-40.57,23.29-56.19,40.68-15.29,17.03-27.36,36.66-35.67,57.98-.3.75-.6,1.48-.87,2.27-8.9,23.73-13.39,48.91-13.23,74.25-.13,25.22,3.82,50.3,11.69,74.27,7.23,22.34,18.7,43.08,33.81,61.07,14.3,17.04,31.92,31,51.8,41.01,20.25,10.15,42.61,15.32,65.26,15.11,25.84,1.11,51.46-5.01,74.01-17.65,22.55-12.64,41.12-31.3,53.66-53.89v225.95l95.03-21.07v-496.09c0-2.34-.45-4.67-1.35-6.84s-2.22-4.15-3.88-5.81c-1.66-1.66-3.64-2.98-5.81-3.89-2.17-.89-4.5-1.36-6.86-1.36h-59.17c-2.36,0-4.69.47-6.86,1.36-2.17.91-4.15,2.23-5.81,3.89-1.66,1.66-2.98,3.64-3.88,5.81s-1.35,4.5-1.35,6.84v52.16c-1.39-11.77-5.69-23.03-12.51-32.75-6.82-9.71-15.95-17.59-26.55-22.92-20.29-9.71-42.5-14.74-65.01-14.7-4.08,0-8.19,0-12.28.53v-.14ZM498.07,1414.58l-2.73-1.73c-2.64-1.82-5.37-3.78-8.12-5.82-11.29-9.07-20.55-20.41-27.19-33.27-8.65-16.76-13.02-35.39-12.71-54.24-.13-14.37,2.23-28.66,6.96-42.23,4.64-12.98,11.63-25.02,20.6-35.5l1.59-1.78c1.06-1.21,2.34-2.5,3.29-3.48.95-.98,1.96-2,2.95-2.94l1.55-1.36,2.53-2.19,3.79-3.14c1.73-1.32,3.55-2.57,5.44-3.78,3.29-2.12,6.7-4.06,10.21-5.82,1.14-.5,2.22-1.14,3.21-1.89,2.31-.94,4.7-1.85,7.07-2.68,3.62-1.21,7.31-2.19,11.05-2.94,2.57-.5,5.07-.87,7.8-1.18l2.68-.26c2.7-.26,5.41-.35,8.12-.3,10.12.04,20.16,1.87,29.65,5.4,15.14,5.82,28.84,14.84,40.16,26.44l.75.8c3.52,3.65,6.8,7.54,9.8,11.63,6.21,8.51,10.68,18.15,13.16,28.37v.71c3.78,12.24,5.68,24.98,5.64,37.77.04,12.67-1.86,25.26-5.64,37.36-1.92,5.81-4.29,11.46-7.11,16.88-8.21,15.85-20.45,29.25-35.47,38.91-15.28,9.64-33,14.73-51.08,14.65h-8.86c-1.16,0-2.3-.18-3.48-.38-.53-.1-1.08-.16-1.62-.18l-3.18-.57h-.3l-1.48-.27-1.85-.37c-1.28-.23-2.54-.51-3.79-.87l-1.78-.45-3.55-1.06-3.56-1.25c-1.55-.53-3.05-1.12-4.57-1.78-1.51-.64-2.95-1.32-4.42-2.03-1.48-.72-1.79-.95-2.68-1.48-.98-.45-1.93-.97-2.84-1.55v-.16ZM1195,1127.52c-4.6,0-9,1.78-12.33,4.94-3.34,3.15-5.33,7.47-5.55,12.04v398.81l94.98-21.12v-376.86c0-4.74-1.89-9.3-5.25-12.67-3.37-3.35-7.92-5.24-12.67-5.24l-59.19.09ZM1064.2,1127.52c-4.76,0-9.33,1.87-12.69,5.24-3.37,3.35-5.27,7.91-5.27,12.65v197.03c1.53,22.22-3.92,44.38-15.62,63.35-5.3,7.1-12.27,12.79-20.31,16.53-8.05,3.72-16.9,5.4-25.76,4.84-12.52-.04-24.94-2.53-36.52-7.28-12.41-5.1-23.73-12.51-33.36-21.84-10.81-10.55-19.58-22.99-25.9-36.71v-215.98c0-4.74-1.89-9.29-5.24-12.64s-7.91-5.23-12.65-5.23h-59.29c-4.76,0-9.32,1.89-12.68,5.24-3.37,3.37-5.24,7.91-5.24,12.67v249.55c.67,7.41-1.25,14.84-5.41,21-4.61,4.66-10.85,7.36-17.4,7.55v77.25c7.28,2.9,14.91,4.87,22.69,5.89h1.09c5.74.67,11.5,1.02,17.28,1.05,15.05-.24,29.64-5.31,41.59-14.47,5.23-3.68,9.61-8.43,12.88-13.93,3.25-5.51,5.31-11.63,6.04-17.98l2.12-29.42c4.32,6.48,9.07,12.65,14.21,18.5,13.86,15.85,30.69,28.83,49.53,38.23,26.78,13.06,56.25,19.7,86.04,19.37,7.33.03,14.65-.47,21.92-1.46,25.55-2.84,48.96-15.52,65.28-35.36,21.88-31.52,32.36-69.57,29.68-107.84v-217.99c-.01-4.74-1.89-9.29-5.24-12.64-3.37-3.35-7.9-5.24-12.65-5.27l-59.13.09ZM538.57,1208.6c2.73-.23,5.37-.33,8.09-.33-2.77,0-5.45,0-8.09.33Z"/>
  <path class="st1" d="M1792.27,1374.22c-7.4,0-13.9-1.32-19.57-3.96-5.65-2.64-10.08-6.43-13.26-11.35-3.2-4.93-4.79-10.85-4.79-17.76v-3.83h17.78v3.83c0,5.74,1.78,10.07,5.33,12.98,3.56,2.83,8.41,4.23,14.51,4.23s10.81-1.22,13.82-3.69c3.1-2.46,4.66-5.59,4.66-9.43,0-2.64-.78-4.77-2.33-6.42-1.46-1.63-3.65-2.95-6.57-3.96-2.83-1.09-6.29-2.1-10.39-3.01l-3.15-.68c-6.56-1.45-12.21-3.28-16.95-5.47-4.66-2.27-8.25-5.24-10.82-8.88-2.46-3.65-3.69-8.39-3.69-14.21s1.38-10.79,4.12-14.9c2.83-4.19,6.75-7.38,11.76-9.57,5.11-2.27,11.09-3.41,17.92-3.41s12.91,1.18,18.2,3.55c5.38,2.27,9.57,5.74,12.58,10.38,3.11,4.56,4.66,10.3,4.66,17.22v4.1h-17.79v-4.1c0-3.65-.72-6.56-2.19-8.75-1.36-2.27-3.38-3.92-6.02-4.93-2.64-1.08-5.79-1.63-9.44-1.63-5.47,0-9.53,1.05-12.17,3.14-2.56,2.02-3.83,4.79-3.83,8.34,0,2.37.6,4.37,1.78,6.02,1.28,1.63,3.15,3.01,5.62,4.1,2.46,1.09,5.59,2.04,9.43,2.87l3.15.68c6.83,1.45,12.77,3.32,17.78,5.59,5.11,2.29,9.07,5.28,11.91,9.02,2.81,3.75,4.23,8.52,4.23,14.36s-1.51,10.98-4.52,15.44c-2.91,4.37-7.11,7.84-12.58,10.39-5.38,2.46-11.77,3.69-19.16,3.69Z"/>
  <path class="st1" d="M1874.83,1374.22c-6.76,0-12.82-1.38-18.2-4.1s-9.61-6.7-12.71-11.89c-3.11-5.2-4.66-11.43-4.66-18.73v-2.19c0-7.28,1.55-13.52,4.66-18.72,3.1-5.2,7.33-9.16,12.71-11.89,5.38-2.74,11.45-4.1,18.2-4.1s12.81,1.36,18.19,4.1c5.4,2.73,9.63,6.69,12.72,11.89,3.11,5.2,4.66,11.43,4.66,18.72v2.19c0,7.3-1.55,13.53-4.66,18.73-3.1,5.18-7.33,9.16-12.72,11.89-5.38,2.73-11.45,4.1-18.19,4.1ZM1874.83,1358.91c5.3,0,9.67-1.69,13.14-5.06,3.46-3.46,5.2-8.38,5.2-14.77v-1.36c0-6.38-1.73-11.25-5.2-14.63-3.38-3.45-7.75-5.18-13.14-5.18s-9.67,1.73-13.14,5.18c-3.46,3.38-5.2,8.25-5.2,14.63v1.36c0,6.39,1.73,11.3,5.2,14.77,3.46,3.37,7.84,5.06,13.14,5.06Z"/>
  <path class="st1" d="M1926.3,1372.3v-95.67h17.24v95.67h-17.24Z"/>
  <path class="st1" d="M1988.51,1373.4c-5.3,0-9.94-1.18-13.96-3.55-3.92-2.46-6.99-5.84-9.16-10.11-2.2-4.29-3.29-9.2-3.29-14.77v-40.44h17.24v39.08c0,5.1,1.24,8.93,3.71,11.47,2.54,2.56,6.15,3.83,10.81,3.83,5.28,0,9.39-1.73,12.3-5.2,2.93-3.55,4.39-8.48,4.39-14.75v-34.44h17.22v67.78h-16.95v-8.89h-2.46c-1.09,2.29-3.15,4.52-6.16,6.7-3.01,2.19-7.57,3.28-13.67,3.28Z"/>
  <path class="st1" d="M2078.84,1374.22c-6.57,0-12.55-1.38-17.93-4.1-5.28-2.73-9.49-6.7-12.58-11.89-3.11-5.2-4.66-11.49-4.66-18.86v-1.92c0-7.38,1.55-13.66,4.66-18.86,3.1-5.2,7.3-9.16,12.58-11.89,5.38-2.74,11.36-4.1,17.93-4.1s12.03,1.14,16.69,3.42c4.66,2.27,8.39,5.41,11.22,9.43,2.93,3.91,4.83,8.38,5.74,13.39l-16.69,3.55c-.36-2.74-1.19-5.2-2.46-7.38-1.28-2.19-3.11-3.92-5.48-5.2-2.27-1.26-5.15-1.9-8.61-1.9s-6.63.77-9.44,2.31c-2.74,1.46-4.93,3.69-6.57,6.7-1.55,2.91-2.33,6.52-2.33,10.79v1.36c0,4.29.78,7.94,2.33,10.93,1.65,2.93,3.83,5.15,6.57,6.7,2.81,1.46,5.96,2.19,9.44,2.19,5.18,0,9.12-1.32,11.76-3.96,2.74-2.74,4.47-6.29,5.2-10.66l16.69,3.96c-1.18,4.83-3.22,9.24-6.15,13.26-2.83,3.92-6.56,7.01-11.22,9.29-4.66,2.29-10.21,3.42-16.69,3.42ZM2078.84,1401.54c-2.93,0-5.79-.27-8.63-.81-2.73-.55-5.1-1.15-7.11-1.78l2.74-10.25c1.73.54,3.56,1.05,5.47,1.51,2.02.45,4.25.68,6.7.68,1.83,0,3.34-.33,4.53-.97,1.18-.64,1.78-1.63,1.78-3,0-1.28-.55-2.24-1.65-2.87-.99-.55-2.68-.82-5.06-.82h-5.2l.95-13.67h11.76l-.54,8.07c3.46,0,6.39.97,8.76,2.87,2.46,1.92,3.69,4.74,3.69,8.48,0,2.91-.87,5.28-2.6,7.1-1.73,1.92-4.02,3.28-6.84,4.1-2.74.91-5.65,1.36-8.75,1.36Z"/>
  <path class="st1" d="M2159.41,1374.22c-6.75,0-12.82-1.38-18.19-4.1-5.38-2.73-9.64-6.7-12.74-11.89-3.1-5.2-4.64-11.43-4.64-18.73v-2.19c0-7.28,1.55-13.52,4.64-18.72,3.1-5.2,7.36-9.16,12.74-11.89,5.37-2.74,11.45-4.1,18.19-4.1s12.81,1.36,18.19,4.1c5.38,2.73,9.63,6.69,12.72,11.89,3.1,5.2,4.66,11.43,4.66,18.72v2.19c0,7.3-1.56,13.53-4.66,18.73-3.1,5.18-7.34,9.16-12.72,11.89-5.38,2.73-11.45,4.1-18.19,4.1ZM2159.41,1358.91c5.28,0,9.66-1.69,13.14-5.06,3.46-3.46,5.2-8.38,5.2-14.77v-1.36c0-6.38-1.73-11.25-5.2-14.63-3.38-3.45-7.75-5.18-13.14-5.18s-9.67,1.73-13.14,5.18c-3.46,3.38-5.2,8.25-5.2,14.63v1.36c0,6.39,1.73,11.3,5.2,14.77,3.46,3.37,7.84,5.06,13.14,5.06ZM2144.07,1298.23l-9.43-6.01,4.52-7.8c1.36-2.37,3.01-4.06,4.91-5.06,2.02-1.09,4.16-1.65,6.43-1.65,2,0,3.75.41,5.21,1.24,1.55.72,3.05,1.73,4.5,3.01.82.72,1.69,1.45,2.61,2.19.99.72,2.09,1.09,3.28,1.09,1.36,0,2.46-.45,3.28-1.38.91-.91,1.69-1.86,2.33-2.87l2.19-3.28,9.44,6.02-4.52,7.78c-1.38,2.29-3.01,3.96-4.93,5.06-1.92,1.09-4.06,1.65-6.43,1.65-2,0-3.79-.37-5.33-1.09-1.48-.82-2.93-1.87-4.39-3.14-.82-.74-1.69-1.46-2.6-2.19-.91-.74-2-1.09-3.28-1.09-1.38,0-2.47.45-3.28,1.36-.84.91-1.6,1.86-2.33,2.87l-2.2,3.28Z"/>
  <path class="st1" d="M2241.8,1374.22c-6.75,0-12.71-1.42-17.92-4.25-5.1-2.91-9.12-6.96-12.03-12.16-2.84-5.28-4.25-11.49-4.25-18.59v-1.63c0-7.11,1.41-13.26,4.25-18.46,2.83-5.28,6.79-9.33,11.9-12.16,5.11-2.91,11.03-4.37,17.78-4.37s12.45,1.51,17.38,4.5c4.93,2.93,8.76,7.01,11.5,12.31,2.73,5.18,4.09,11.25,4.09,18.18v5.86h-49.39c.18,4.66,1.92,8.43,5.2,11.35,3.29,2.91,7.3,4.37,12.04,4.37s8.39-1.05,10.68-3.14c2.27-2.1,4-4.42,5.2-6.97l14.09,7.38c-1.28,2.36-3.15,4.96-5.61,7.78-2.37,2.74-5.57,5.1-9.57,7.11-4.02,1.9-9.12,2.87-15.34,2.87ZM2225.26,1330.62h31.74c-.37-3.92-1.96-7.06-4.79-9.43-2.74-2.37-6.35-3.56-10.81-3.56s-8.35,1.19-11.09,3.56c-2.74,2.37-4.42,5.51-5.06,9.43Z"/>
  <path class="st1" d="M2318.04,1374.22c-8.85,0-16.1-1.92-21.77-5.74-5.64-3.83-9.06-9.3-10.25-16.4l15.88-4.1c.64,3.18,1.69,5.69,3.14,7.51,1.56,1.83,3.42,3.15,5.62,3.96,2.27.74,4.73,1.09,7.38,1.09,4,0,6.97-.68,8.89-2.04,1.92-1.46,2.87-3.24,2.87-5.33s-.91-3.69-2.74-4.79c-1.82-1.19-4.74-2.14-8.75-2.87l-3.83-.68c-4.74-.92-9.07-2.14-12.99-3.69-3.93-1.65-7.07-3.88-9.44-6.7-2.37-2.83-3.56-6.46-3.56-10.93,0-6.73,2.47-11.89,7.4-15.44,4.93-3.65,11.4-5.47,19.43-5.47,7.57,0,13.86,1.69,18.87,5.06,5.03,3.37,8.31,7.8,9.85,13.25l-16,4.93c-.74-3.46-2.23-5.92-4.52-7.38-2.19-1.45-4.93-2.19-8.21-2.19s-5.79.6-7.53,1.78c-1.73,1.09-2.6,2.64-2.6,4.66,0,2.19.91,3.82,2.74,4.91,1.82,1.01,4.27,1.78,7.38,2.33l3.83.68c5.1.91,9.71,2.13,13.82,3.69,4.19,1.45,7.47,3.59,9.84,6.42,2.47,2.73,3.71,6.46,3.71,11.2,0,7.1-2.61,12.62-7.8,16.54-5.11,3.82-12,5.74-20.66,5.74Z"/>
  <path class="st1" d="M1759.02,1508.07v-95.67h60.19v16.4h-42.15v23.1h38.87v16.39h-38.87v39.77h-18.05Z"/>
  <path class="st1" d="M1832.65,1508.07v-67.78h17.24v67.78h-17.24ZM1841.27,1432.35c-3.11,0-5.75-.99-7.94-3-2.1-2-3.15-4.66-3.15-7.92s1.05-5.92,3.15-7.94c2.19-2,4.83-3,7.94-3s5.84.99,7.94,3c2.1,2.02,3.14,4.66,3.14,7.94s-1.04,5.92-3.14,7.92c-2.1,2-4.74,3-7.94,3Z"/>
  <path class="st1" d="M1868.99,1508.07v-67.78h16.97v8.88h2.46c1.11-2.37,3.15-4.6,6.16-6.69,3.01-2.19,7.57-3.28,13.67-3.28,5.3,0,9.9,1.22,13.82,3.68,4.02,2.37,7.11,5.69,9.32,9.98,2.19,4.19,3.28,9.12,3.28,14.75v40.46h-17.24v-39.08c0-5.11-1.28-8.93-3.83-11.49-2.46-2.54-6.02-3.82-10.68-3.82-5.28,0-9.39,1.78-12.31,5.33-2.91,3.46-4.37,8.34-4.37,14.63v34.44h-17.24Z"/>
  <path class="st1" d="M1974.37,1509.99c-4.83,0-9.17-.82-12.99-2.47-3.85-1.72-6.9-4.19-9.17-7.37-2.19-3.28-3.28-7.24-3.28-11.89s1.09-8.52,3.28-11.62c2.27-3.2,5.38-5.57,9.3-7.11,4.02-1.63,8.58-2.46,13.69-2.46h18.6v-3.83c0-3.18-1.01-5.78-3.01-7.78-2-2.1-5.2-3.14-9.59-3.14s-7.47.99-9.57,3c-2.09,1.92-3.46,4.42-4.1,7.53l-15.86-5.34c1.08-3.46,2.81-6.6,5.18-9.43,2.47-2.91,5.71-5.24,9.73-6.97,4.09-1.82,9.07-2.73,14.91-2.73,8.93,0,16,2.23,21.2,6.69,5.2,4.47,7.8,10.93,7.8,19.41v25.28c0,2.74,1.28,4.1,3.83,4.1h5.47v14.21h-11.49c-3.38,0-6.16-.82-8.34-2.46-2.2-1.65-3.29-3.83-3.29-6.56v-.14h-2.6c-.37,1.09-1.18,2.56-2.46,4.37-1.28,1.73-3.29,3.28-6.02,4.64-2.74,1.38-6.48,2.06-11.22,2.06ZM1977.38,1496.04c4.83,0,8.76-1.32,11.77-3.96,3.1-2.73,4.64-6.33,4.64-10.79v-1.38h-17.38c-3.18,0-5.69.7-7.51,2.06-1.83,1.36-2.74,3.28-2.74,5.74s.95,4.46,2.87,6.01c1.92,1.56,4.7,2.33,8.35,2.33Z"/>
  <path class="st1" d="M2032.39,1508.07v-67.78h16.97v8.88h2.46c1.09-2.37,3.15-4.6,6.15-6.69,3.02-2.19,7.58-3.28,13.69-3.28,5.3,0,9.9,1.22,13.82,3.68,4.02,2.37,7.11,5.69,9.3,9.98,2.2,4.19,3.29,9.12,3.29,14.75v40.46h-17.24v-39.08c0-5.11-1.28-8.93-3.83-11.49-2.47-2.54-6.02-3.82-10.66-3.82-5.3,0-9.4,1.78-12.33,5.33-2.91,3.46-4.37,8.34-4.37,14.63v34.44h-17.24Z"/>
  <path class="st1" d="M2148.58,1509.99c-6.57,0-12.54-1.38-17.92-4.1-5.28-2.73-9.49-6.7-12.6-11.89-3.1-5.2-4.64-11.49-4.64-18.86v-1.92c0-7.38,1.55-13.66,4.64-18.86,3.11-5.2,7.31-9.16,12.6-11.89,5.38-2.74,11.35-4.1,17.92-4.1s12.04,1.14,16.69,3.41c4.66,2.29,8.39,5.42,11.22,9.44,2.93,3.91,4.84,8.38,5.75,13.39l-16.68,3.55c-.37-2.74-1.19-5.2-2.47-7.38-1.28-2.19-3.1-3.92-5.47-5.2-2.29-1.26-5.15-1.9-8.62-1.9s-6.62.77-9.44,2.31c-2.73,1.46-4.93,3.69-6.57,6.7-1.53,2.91-2.31,6.52-2.31,10.79v1.36c0,4.29.78,7.94,2.31,10.93,1.65,2.93,3.85,5.15,6.57,6.7,2.83,1.46,5.98,2.19,9.44,2.19,5.2,0,9.12-1.32,11.76-3.96,2.74-2.74,4.47-6.29,5.21-10.66l16.69,3.96c-1.18,4.83-3.24,9.24-6.16,13.26-2.83,3.92-6.56,7.01-11.22,9.29-4.64,2.27-10.21,3.42-16.69,3.42Z"/>
  <path class="st1" d="M2227.78,1509.99c-6.76,0-12.72-1.42-17.92-4.25-5.11-2.91-9.13-6.96-12.04-12.16-2.83-5.28-4.25-11.49-4.25-18.59v-1.63c0-7.11,1.42-13.26,4.25-18.46,2.83-5.28,6.79-9.33,11.9-12.16,5.1-2.91,11.03-4.37,17.79-4.37s12.44,1.51,17.37,4.5c4.93,2.93,8.76,7.01,11.49,12.31,2.74,5.18,4.1,11.25,4.1,18.18v5.86h-49.39c.18,4.66,1.92,8.43,5.2,11.35,3.28,2.91,7.3,4.37,12.04,4.37s8.39-1.05,10.68-3.14c2.27-2.1,4-4.42,5.2-6.97l14.1,7.38c-1.29,2.36-3.15,4.96-5.62,7.78-2.37,2.74-5.55,5.1-9.57,7.11-4.02,1.9-9.12,2.87-15.32,2.87ZM2211.23,1466.39h31.74c-.37-3.92-1.96-7.06-4.79-9.43-2.74-2.37-6.33-3.56-10.81-3.56s-8.35,1.19-11.09,3.56c-2.73,2.37-4.42,5.51-5.06,9.43Z"/>
  <path class="st1" d="M2275.82,1508.07v-67.78h17.24v67.78h-17.24ZM2284.44,1432.35c-3.1,0-5.75-.99-7.94-3-2.1-2-3.15-4.66-3.15-7.92s1.05-5.92,3.15-7.94c2.19-2,4.84-3,7.94-3s5.84.99,7.94,3c2.1,2.02,3.15,4.66,3.15,7.94s-1.05,5.92-3.15,7.92c-2.1,2-4.74,3-7.94,3Z"/>
  <path class="st1" d="M2312.16,1508.07v-67.78h16.97v7.65h2.46c1.01-2.74,2.64-4.74,4.93-6.02,2.37-1.28,5.11-1.92,8.21-1.92h8.21v15.31h-8.48c-4.39,0-7.98,1.19-10.81,3.55-2.83,2.29-4.25,5.84-4.25,10.66v38.54h-17.24Z"/>
  <path class="st1" d="M2385.87,1509.99c-4.84,0-9.17-.82-13.01-2.47-3.82-1.72-6.87-4.19-9.16-7.37-2.19-3.28-3.28-7.24-3.28-11.89s1.09-8.52,3.28-11.62c2.29-3.2,5.38-5.57,9.3-7.11,4.02-1.63,8.58-2.46,13.69-2.46h18.6v-3.83c0-3.18-1.01-5.78-3.01-7.78-2.02-2.1-5.2-3.14-9.57-3.14s-7.48.99-9.58,3c-2.1,1.92-3.46,4.42-4.1,7.53l-15.88-5.34c1.11-3.46,2.84-6.6,5.21-9.43,2.46-2.91,5.69-5.24,9.71-6.97,4.1-1.82,9.07-2.73,14.91-2.73,8.93,0,16,2.23,21.2,6.69,5.21,4.47,7.8,10.93,7.8,19.41v25.28c0,2.74,1.28,4.1,3.83,4.1h5.48v14.21h-11.5c-3.37,0-6.15-.82-8.35-2.46-2.17-1.65-3.28-3.83-3.28-6.56v-.14h-2.6c-.36,1.09-1.18,2.56-2.46,4.37-1.28,1.73-3.28,3.28-6.02,4.64-2.74,1.38-6.48,2.06-11.22,2.06ZM2388.88,1496.04c4.84,0,8.75-1.32,11.76-3.96,3.11-2.73,4.66-6.33,4.66-10.79v-1.38h-17.37c-3.21,0-5.71.7-7.54,2.06-1.82,1.36-2.73,3.28-2.73,5.74s.95,4.46,2.87,6.01c1.92,1.56,4.7,2.33,8.35,2.33Z"/>
  <path class="st1" d="M2471.54,1509.99c-8.85,0-16.09-1.92-21.75-5.75-5.65-3.82-9.07-9.29-10.25-16.39l15.86-4.1c.64,3.18,1.69,5.69,3.15,7.51,1.55,1.83,3.42,3.15,5.61,3.96,2.27.74,4.74,1.09,7.38,1.09,4.02,0,6.99-.68,8.9-2.04,1.9-1.46,2.87-3.24,2.87-5.33s-.91-3.69-2.74-4.79c-1.82-1.19-4.74-2.14-8.76-2.87l-3.82-.68c-4.74-.92-9.07-2.14-13.01-3.69-3.91-1.65-7.06-3.88-9.43-6.7-2.37-2.83-3.56-6.46-3.56-10.93,0-6.73,2.46-11.89,7.4-15.44,4.91-3.65,11.39-5.47,19.41-5.47,7.58,0,13.87,1.69,18.89,5.06s8.31,7.8,9.85,13.25l-16,4.93c-.74-3.46-2.24-5.92-4.52-7.38-2.2-1.45-4.93-2.19-8.22-2.19s-5.78.6-7.51,1.78c-1.73,1.09-2.61,2.64-2.61,4.66,0,2.19.92,3.82,2.74,4.91,1.83,1.01,4.29,1.78,7.38,2.33l3.83.68c5.11.91,9.71,2.14,13.82,3.69,4.2,1.45,7.48,3.59,9.85,6.42,2.47,2.73,3.69,6.46,3.69,11.2,0,7.1-2.6,12.62-7.8,16.53-5.11,3.83-12,5.75-20.66,5.75Z"/>
</svg>