<?xml version="1.0" encoding="UTF-8"?>
<svg id="svg12148886531" xmlns="http://www.w3.org/2000/svg" version="1.1" viewBox="0 0 2500 2500">
  <!-- Generator: Adobe Illustrator 29.6.1, SVG Export Plug-In . SVG Version: 2.1.1 Build 9)  -->
  <defs>
    <style>
      .st0 {
        fill: #ff3464;
      }
    </style>
  </defs>
  <path class="st0" d="M2441.62,950.26h-86.22c-6.9,0-13.53,2.75-18.41,7.63-4.88,4.86-7.63,11.48-7.63,18.38v287.52c-18.38-30.77-44.11-56.52-74.9-74.92-32.53-19.73-69.93-29.9-107.98-29.36-44.36-.63-87.84,12.22-124.71,36.84-36.97,24.9-66.58,59.24-85.76,99.45-4.43,9.06-8.36,18.36-11.78,27.83-12.99,36.06-19.46,74.15-19.11,112.5-.26,37.06,6.2,73.86,19.11,108.62,11.96,32.59,30.13,62.58,53.47,88.28,10.72,11.78,22.54,22.5,35.34,31.96,14.42,10.69,29.93,19.81,46.27,27.22,32.2,14.58,67.16,21.96,102.49,21.67,37.31.04,74.05-9.07,106.99-26.55,23.15-12.03,43.73-28.46,60.59-48.35,7.72-9.04,14.62-18.76,20.64-28.99l2.11,33.99c.87,9.57,3.79,18.84,8.52,27.22,4.76,8.36,11.23,15.61,19,21.31,17.52,13.85,39.17,21.45,61.53,21.55,9.01-.13,18.03-1.12,26.87-2.91,9.7-1.81,20.23-4.34,31.95-7.43v-112.7c-4.67-.15-9.26-1.22-13.5-3.16-4.27-1.97-8.07-4.73-11.23-8.17-4.54-6.89-6.98-14.96-6.99-23.2v-580.22c-.04-6.9-2.81-13.5-7.72-18.38s-11.52-7.62-18.45-7.63h-.49ZM1852.39,950.26h-68.98c-18.36,0-35.94,7.28-48.9,20.24-12.96,12.95-20.27,30.52-20.27,48.84s7.3,35.9,20.27,48.84c12.96,12.96,30.54,20.24,48.9,20.24h69.16l-.16-138.18h-.01ZM0,1623.97c30.83,29.93,67.79,52.79,108.33,67.06,42.39,15.2,87.13,22.88,132.16,22.7,56.17,2.91,111.71-12.8,157.99-44.71,19.24-14.27,34.7-33,45.04-54.6,10.34-21.58,15.25-45.38,14.27-69.27,1.53-27.44-6.51-54.55-22.75-76.74-18.45-20.88-41.66-37.02-67.69-47.02-29.11-12.32-58.95-22.95-89.31-31.8-6.66-1.98-13.44-3.9-20.43-5.87-21.36-6.83-39.38-12.89-54.17-18.32-12.22-3.87-23.47-10.25-33.04-18.76-6.01-6.2-9.7-14.29-10.43-22.89-.26-2.33-.41-4.67-.44-7.03-.38-6.01.48-12.03,2.5-17.72,2.02-5.66,5.18-10.88,9.29-15.28,8.71-8.23,19.41-14.04,31.06-16.83,13.31-3.45,27.04-5.16,40.8-5.07,25.85.1,51.43,5.18,75.33,14.97,19.98,8.17,39.09,18.31,57.06,30.25l82.06-69.38c-28.57-26.53-62.33-46.94-99.11-59.88-35.39-12.22-72.57-18.35-109.98-18.1h-6.39c-37.27.04-74.15,7.38-108.61,21.61-30.42,12.51-56.81,33.13-76.26,59.62-17.24,24.32-26.82,53.23-27.54,83.01v8.08c-.98,25.47,6.22,50.58,20.55,71.68,15.77,20.49,36.67,36.48,60.57,46.38,18.57,8.4,40.27,16.98,65.04,25.79,11.02,3.84,22.85,7.82,35.14,11.77,24.12,6.83,44.62,12.93,61.53,18.32,13.85,3.99,26.9,10.38,38.55,18.86,4.44,3.6,7.98,8.21,10.32,13.43,2.33,5.21,3.39,10.92,3.1,16.63.35,8.53-1.76,17.02-6.06,24.42s-10.6,13.43-18.22,17.37c-20.02,10.14-42.35,14.87-64.76,13.7-31.02-.39-61.69-6.68-90.36-18.55-23.05-9.32-45.01-21.2-65.47-35.36L0,1623.97ZM2138.91,1584c-18.07-7.88-34.41-19.24-48.09-33.39-13.88-14.31-24.58-31.4-31.43-50.11-5.71-14.85-9.25-30.42-10.47-46.27v-3.2c-.1-1.3-.1-2.62,0-3.95v-19.15c.89-17.1,4.09-34.02,9.54-50.27,6.22-18.9,16.03-36.42,28.89-51.6l1.88-2.16c12.22-13.63,26.9-24.83,43.28-33,17.93-8.97,37.72-13.53,57.78-13.25h1.76c18.8.5,37.24,5.18,54.01,13.7,17.08,8.4,32.74,19.46,46.38,32.71l4.24,4.24c6.8,6.95,12.93,14.53,18.28,22.66v.26c6,9.29,10.89,19.24,14.61,29.65v3.64c5.48,17.81,8.26,36.35,8.18,55,.15,18.45-2.62,36.81-8.18,54.39-2.75,8.48-6.22,16.69-10.43,24.55-11.81,23.04-29.47,42.6-51.2,56.71-21.7,13.67-46.77,21.03-72.42,21.23-19.35-.26-38.46-4.43-56.18-12.22l-.44-.2h0ZM762.87,1159.85c-34.08-.35-67.83,6.58-99.01,20.29-31.18,13.7-59.08,33.92-81.83,59.24-22.27,24.8-39.84,53.39-51.94,84.43-.44,1.09-.87,2.16-1.27,3.31-12.96,34.56-19.5,71.23-19.27,108.13-.19,36.73,5.56,73.25,17.02,108.16,10.53,32.53,27.23,62.74,49.24,88.93,20.82,24.81,46.48,45.14,75.43,59.72,29.49,14.78,62.05,22.31,95.04,22,37.63,1.62,74.94-7.3,107.78-25.7,32.84-18.41,59.88-45.58,78.14-78.48v329.04l138.39-30.68v-722.43c0-3.41-.66-6.8-1.97-9.96s-3.23-6.04-5.65-8.46c-2.42-2.42-5.3-4.34-8.46-5.66-3.16-1.3-6.55-1.98-9.99-1.98h-86.17c-3.44,0-6.83.68-9.99,1.98-3.16,1.33-6.04,3.25-8.46,5.66s-4.34,5.3-5.65,8.46-1.97,6.55-1.97,9.96v75.96c-2.02-17.14-8.29-33.54-18.22-47.69-9.93-14.14-23.23-25.62-38.66-33.38-29.55-14.14-61.89-21.47-94.67-21.41-5.94,0-11.93,0-17.88.77v-.2h.01ZM725.32,1577.87l-3.98-2.52c-3.84-2.65-7.82-5.5-11.82-8.48-16.44-13.21-29.93-29.72-39.6-48.45-12.6-24.41-18.96-51.54-18.51-78.99-.19-20.93,3.25-41.74,10.14-61.5,6.76-18.9,16.94-36.44,30-51.7l2.32-2.59c1.54-1.76,3.41-3.64,4.79-5.07s2.85-2.91,4.3-4.28l2.26-1.98,3.68-3.19,5.52-4.57c2.52-1.92,5.17-3.74,7.92-5.5,4.79-3.09,9.76-5.91,14.87-8.48,1.66-.73,3.23-1.66,4.67-2.75,3.36-1.37,6.84-2.69,10.3-3.9,5.27-1.76,10.65-3.19,16.09-4.28,3.74-.73,7.38-1.27,11.36-1.72l3.9-.38c3.93-.38,7.88-.51,11.82-.44,14.74.06,29.36,2.72,43.18,7.86,22.05,8.48,42,21.61,58.48,38.5l1.09,1.17c5.13,5.32,9.9,10.98,14.27,16.94,9.04,12.39,15.55,26.43,19.16,41.31v1.03c5.5,17.82,8.27,36.38,8.21,55,.06,18.45-2.71,36.79-8.21,54.41-2.8,8.46-6.25,16.69-10.35,24.58-11.96,23.08-29.78,42.6-51.65,56.66-22.25,14.04-48.06,21.45-74.39,21.33h-12.9c-1.69,0-3.35-.26-5.07-.55-.77-.15-1.57-.23-2.36-.26l-4.63-.83h-.44l-2.16-.39-2.69-.54c-1.86-.33-3.7-.74-5.52-1.27l-2.59-.66-5.17-1.54-5.18-1.82c-2.26-.77-4.44-1.63-6.66-2.59-2.2-.93-4.3-1.92-6.44-2.96-2.16-1.05-2.61-1.38-3.9-2.16-1.43-.66-2.81-1.41-4.14-2.26v-.23h.01ZM1740.23,1159.85c-6.7,0-13.11,2.59-17.96,7.19-4.86,4.59-7.76,10.88-8.08,17.53v580.77l138.32-30.76v-548.81c0-6.9-2.75-13.54-7.65-18.45-4.91-4.88-11.53-7.63-18.45-7.63l-86.2.13h.01ZM1549.75,1159.85c-6.93,0-13.59,2.72-18.48,7.63-4.91,4.88-7.67,11.52-7.67,18.42v286.93c2.23,32.36-5.71,64.63-22.75,92.25-7.72,10.34-17.87,18.63-29.58,24.07-11.72,5.42-24.61,7.86-37.51,7.05-18.23-.06-36.32-3.68-53.18-10.6-18.07-7.43-34.56-18.22-48.58-31.8-15.74-15.36-28.51-33.48-37.72-53.46v-314.52c0-6.9-2.75-13.53-7.63-18.41s-11.52-7.62-18.42-7.62h-86.34c-6.93,0-13.57,2.75-18.47,7.63-4.91,4.91-7.63,11.52-7.63,18.45v363.41c.98,10.79-1.82,21.61-7.88,30.58-6.71,6.79-15.8,10.72-25.34,10.99v112.5c10.6,4.22,21.71,7.09,33.04,8.58h1.59c8.36.98,16.75,1.49,25.16,1.53,21.92-.35,43.16-7.73,60.57-21.07,7.62-5.36,13.99-12.28,18.76-20.29,4.73-8.02,7.73-16.94,8.8-26.18l3.09-42.84c6.29,9.44,13.21,18.42,20.69,26.94,20.18,23.08,44.69,41.98,72.13,55.67,39,19.02,81.91,28.69,125.3,28.21,10.67.04,21.33-.68,31.92-2.13,37.21-4.14,71.3-22.6,95.06-51.49,31.86-45.9,47.12-101.31,43.22-157.04v-317.45c-.01-6.9-2.75-13.53-7.63-18.41-4.91-4.88-11.5-7.63-18.42-7.67l-86.11.13h.01ZM784.3,1277.92c3.98-.33,7.82-.48,11.78-.48-4.03,0-7.94,0-11.78.48Z"/>
</svg>